{"glyphs":{"a":{"ha":574,"x_min":28,"x_max":546,"o":"m 153 722 l 421 722 q 510 686 474 722 q 546 599 546 650 l 546 125 q 510 37 546 74 q 421 0 474 0 l 153 0 q 64 37 100 0 q 28 125 28 74 l 28 313 q 66 405 28 367 q 160 443 104 443 l 308 443 q 320 448 315 443 q 325 460 325 453 l 325 531 q 315 563 325 550 q 286 576 306 576 q 258 565 267 576 q 249 533 249 553 l 249 526 q 237 497 249 510 q 207 485 225 485 l 69 485 q 40 497 53 485 q 28 526 28 510 l 28 599 q 64 686 28 650 q 153 722 100 722 m 153 679 q 94 656 118 679 q 71 599 71 632 l 71 544 q 88 528 71 528 l 190 528 q 207 544 207 528 l 207 549 q 228 596 207 572 q 286 619 250 619 q 345 593 324 619 q 367 531 367 567 l 367 439 q 356 413 367 424 q 329 401 344 401 l 158 401 q 97 375 122 401 q 71 313 71 349 l 71 125 q 94 67 71 92 q 153 43 118 43 l 421 43 q 479 67 456 43 q 503 125 503 92 l 503 599 q 479 656 503 632 q 421 679 456 679 l 153 679 m 283 329 l 333 329 q 357 320 347 329 q 367 297 367 311 l 367 200 q 345 137 367 163 q 286 111 324 111 q 228 137 250 111 q 207 200 207 163 l 207 254 q 229 308 207 286 q 283 329 251 329 m 283 288 q 259 278 269 288 q 249 253 249 268 l 249 200 q 258 167 249 181 q 286 153 267 153 q 315 167 306 153 q 325 200 325 181 l 325 274 q 311 288 325 288 l 283 288 z "},"b":{"ha":610,"x_min":28,"x_max":582,"o":"m 219 972 q 250 960 238 972 q 263 929 263 947 l 263 740 q 279 722 263 722 l 457 722 q 546 686 510 722 q 582 599 582 650 l 582 125 q 546 36 582 72 q 457 0 510 0 l 69 1 q 40 13 53 1 q 28 43 28 25 l 28 929 q 40 960 28 947 q 69 972 53 972 l 219 972 m 203 929 l 88 929 q 71 911 71 929 l 69 61 q 88 43 69 43 l 457 43 q 515 67 492 43 q 539 125 539 90 l 539 599 q 515 656 539 632 q 457 679 492 679 l 263 681 q 233 692 244 681 q 221 722 221 704 l 219 911 q 203 929 219 929 m 308 613 q 372 586 346 613 q 397 524 397 560 l 397 193 q 372 131 397 157 q 308 104 346 104 q 246 131 272 104 q 219 193 219 157 l 219 524 q 246 586 219 560 q 308 613 272 613 m 308 569 q 276 556 289 569 q 263 524 263 543 l 263 193 q 276 160 263 174 q 308 146 289 146 q 342 160 328 146 q 356 193 356 174 l 356 524 q 342 556 356 543 q 308 569 328 569 z "},"c":{"ha":574,"x_min":28,"x_max":546,"o":"m 151 722 l 421 722 q 510 686 474 722 q 546 599 546 650 l 546 443 q 533 413 546 425 q 503 401 521 401 l 367 401 q 336 413 349 401 q 324 443 324 425 l 324 524 q 315 556 324 543 q 286 569 306 569 q 258 556 267 569 q 249 524 249 543 l 249 193 q 258 160 249 174 q 286 146 267 146 q 315 160 306 146 q 324 193 324 174 l 324 274 q 336 303 324 290 q 367 315 349 315 l 503 315 q 533 303 521 315 q 546 274 546 290 l 546 125 q 510 36 546 72 q 421 0 474 0 l 151 0 q 64 36 100 0 q 28 125 28 72 l 28 599 q 64 686 28 650 q 151 722 100 722 m 151 679 q 94 656 118 679 q 71 599 71 632 l 71 125 q 94 67 71 90 q 151 43 118 43 l 421 43 q 479 67 456 43 q 503 125 503 90 l 503 256 q 485 272 503 272 l 383 272 q 367 256 367 272 l 367 193 q 345 131 367 157 q 286 104 324 104 q 228 131 250 104 q 207 193 207 157 l 207 524 q 228 586 207 560 q 286 613 250 613 q 345 586 324 613 q 367 524 367 560 l 367 461 q 383 443 367 443 l 485 443 q 503 461 503 443 l 503 599 q 479 656 503 632 q 421 679 456 679 l 151 679 z "},"d":{"ha":610,"x_min":28,"x_max":582,"o":"m 390 972 l 539 972 q 569 960 557 972 q 582 929 582 947 l 582 43 q 569 13 582 25 q 539 1 557 1 l 151 0 q 64 36 100 0 q 28 125 28 72 l 28 599 q 64 686 28 650 q 151 722 100 722 l 331 722 q 347 740 347 722 l 347 929 q 360 960 347 947 q 390 972 372 972 m 407 929 q 390 911 390 929 l 389 722 q 376 692 389 704 q 347 681 364 681 l 151 679 q 94 656 118 679 q 71 599 71 632 l 71 125 q 94 67 71 90 q 151 43 118 43 l 522 43 q 540 61 540 43 l 539 911 q 521 929 539 929 l 407 929 m 301 613 q 364 586 338 613 q 390 524 390 560 l 390 193 q 364 131 390 157 q 301 104 338 104 q 238 131 264 104 q 213 193 213 157 l 213 524 q 238 586 213 560 q 301 613 264 613 m 301 569 q 268 556 282 569 q 254 524 254 543 l 254 193 q 268 160 254 174 q 301 146 282 146 q 334 160 321 146 q 347 193 347 174 l 347 524 q 334 556 347 543 q 301 569 321 569 z "},"e":{"ha":574,"x_min":28,"x_max":546,"o":"m 151 722 l 421 722 q 510 686 474 722 q 546 599 546 650 l 546 350 q 533 320 546 332 q 503 308 521 308 l 265 308 q 253 303 258 308 q 249 292 249 299 l 249 193 q 258 160 249 174 q 286 146 267 146 q 315 160 306 146 q 325 193 325 174 l 324 215 q 336 245 324 233 q 367 257 349 257 l 503 257 q 533 245 521 257 q 546 215 546 233 l 546 125 q 510 37 546 74 q 421 0 474 0 l 151 0 q 64 37 100 0 q 28 125 28 74 l 28 599 q 64 686 28 650 q 151 722 100 722 m 151 679 q 94 656 118 679 q 71 599 71 632 l 71 125 q 94 67 71 92 q 151 43 118 43 l 421 43 q 479 67 456 43 q 503 125 503 92 l 503 197 q 485 214 503 214 l 383 214 q 367 197 367 214 l 367 193 q 345 131 367 157 q 286 104 324 104 q 228 131 250 104 q 207 193 207 157 l 207 313 q 218 339 207 328 q 244 350 229 350 l 485 350 q 503 368 503 350 l 503 599 q 479 656 503 632 q 421 679 456 679 l 151 679 m 286 613 q 345 586 324 613 q 367 524 367 560 l 367 461 q 355 434 367 446 q 326 422 343 422 q 285 422 306 422 q 242 421 264 421 q 217 431 226 421 q 207 457 207 442 l 207 524 q 228 586 207 560 q 286 613 250 613 m 286 569 q 258 556 267 569 q 249 524 249 543 l 249 479 q 265 464 249 464 l 308 464 q 324 479 324 464 l 325 524 q 315 556 325 543 q 286 569 306 569 z "},"f":{"ha":481,"x_min":28,"x_max":453,"o":"m 411 971 q 441 959 429 971 q 453 929 453 947 l 453 810 q 441 781 453 793 q 411 768 429 768 l 290 768 q 271 760 279 768 q 263 740 263 751 q 271 721 263 729 q 290 713 279 713 l 382 713 l 401 713 q 432 700 421 713 q 443 671 443 688 l 443 550 q 431 521 443 533 q 401 508 418 508 l 290 508 q 271 500 279 508 q 263 481 263 492 l 263 42 q 250 13 263 25 q 219 0 238 0 l 69 0 q 40 13 53 0 q 28 43 28 25 l 28 847 q 64 935 28 899 q 153 971 100 971 l 411 971 m 393 931 l 153 929 q 94 905 118 929 q 71 847 71 881 l 71 60 q 89 42 71 42 l 203 42 q 221 60 221 42 l 221 489 q 247 538 221 525 q 301 551 274 550 l 383 551 q 401 568 401 551 l 401 653 q 383 671 401 671 l 332 671 l 290 671 q 241 691 261 671 q 221 740 221 711 q 241 790 221 769 q 290 810 261 810 l 393 810 q 411 828 411 810 l 411 913 q 393 931 411 931 z "},"g":{"ha":610,"x_min":28,"x_max":582,"o":"m 151 722 l 539 722 q 569 710 557 722 q 582 681 582 697 l 582 -125 q 570 -173 582 -150 q 539 -212 558 -196 q 494 -239 519 -229 q 444 -249 469 -249 l 153 -249 q 64 -212 100 -249 q 28 -125 28 -176 l 28 -24 q 40 7 28 -6 q 69 19 53 19 l 231 19 q 260 7 249 19 q 272 -24 272 -6 l 272 -57 q 281 -90 272 -76 q 310 -103 290 -103 q 338 -90 329 -103 q 347 -57 347 -76 l 347 49 q 331 67 347 67 l 151 65 q 64 101 100 65 q 28 190 28 138 l 28 599 q 64 686 28 650 q 151 722 100 722 m 522 681 l 151 679 q 94 656 118 679 q 71 599 71 632 l 71 190 q 94 132 71 156 q 151 108 118 108 l 347 108 q 376 96 364 108 q 389 67 389 83 l 390 -57 q 368 -119 390 -93 q 310 -146 346 -146 q 252 -119 274 -146 q 231 -57 231 -93 l 231 -42 q 213 -24 231 -24 l 88 -24 q 71 -42 71 -24 l 71 -125 q 94 -183 71 -158 q 153 -207 118 -207 l 444 -207 q 508 -183 478 -207 q 539 -125 539 -158 l 539 663 q 522 681 539 681 m 301 176 q 239 202 265 176 q 213 265 213 228 l 213 531 q 239 593 213 567 q 301 619 265 619 q 364 593 338 619 q 390 531 390 567 l 390 265 q 364 202 390 228 q 301 176 338 176 m 301 218 q 334 232 321 218 q 347 265 347 246 l 347 531 q 334 563 347 550 q 301 576 321 576 q 268 563 282 576 q 254 531 254 550 l 254 265 q 268 232 254 246 q 301 218 282 218 z "},"h":{"ha":610,"x_min":28,"x_max":582,"o":"m 71 972 l 219 972 q 250 960 238 972 q 263 929 263 947 l 263 740 q 279 722 263 722 l 457 722 q 546 686 510 722 q 582 599 582 650 l 582 43 q 569 13 582 25 q 539 0 557 0 l 397 0 q 367 13 379 0 q 356 43 356 25 l 356 524 q 342 556 356 543 q 308 569 328 569 q 276 556 289 569 q 263 524 263 543 l 263 43 q 250 13 263 25 q 219 0 238 0 l 69 0 q 40 13 53 0 q 28 43 28 25 l 28 929 q 40 960 28 947 q 71 972 53 972 m 88 929 q 71 911 71 929 l 69 61 q 88 43 69 43 l 203 43 q 221 61 221 43 l 219 524 q 246 586 219 560 q 308 613 272 613 q 372 586 346 613 q 397 524 397 560 l 397 383 l 397 61 q 415 43 397 43 l 521 43 q 539 61 539 43 l 539 599 q 515 656 539 632 q 457 679 492 679 l 263 681 q 233 692 244 681 q 221 722 221 704 l 219 911 q 203 929 219 929 l 88 929 z "},"i":{"ha":290,"x_min":28,"x_max":263,"o":"m 263 43 q 250 13 263 25 q 219 1 238 1 l 69 1 q 40 14 53 1 q 28 43 28 26 l 28 681 q 40 710 28 697 q 71 722 53 722 l 219 722 q 250 710 238 722 q 263 681 263 697 l 263 43 m 219 663 q 201 679 219 679 l 88 679 q 69 663 69 679 l 69 61 q 88 43 69 43 l 203 43 q 221 61 221 43 l 219 663 z "},"j":{"ha":415,"x_min":28,"x_max":388,"o":"m 69 -249 q 40 -237 53 -249 q 28 -207 28 -225 l 28 -87 q 40 -58 28 -71 q 71 -46 53 -46 l 125 -46 q 146 -37 138 -46 q 154 -18 154 -29 l 154 681 q 166 710 154 697 q 196 722 178 722 l 346 722 q 376 710 364 722 q 388 681 388 697 l 388 -125 q 351 -212 388 -176 q 264 -249 315 -249 l 69 -249 m 88 -207 l 264 -206 q 322 -182 297 -206 q 346 -125 346 -158 l 346 663 q 328 681 346 681 l 213 681 q 194 663 194 681 l 196 -18 q 175 -67 196 -47 q 125 -87 154 -87 l 88 -87 q 69 -106 69 -87 l 69 -190 q 88 -207 69 -207 z "},"k":{"ha":610,"x_min":28,"x_max":582,"o":"m 71 972 l 219 972 q 250 960 238 972 q 263 931 263 947 l 263 474 q 275 460 263 460 l 308 460 q 342 474 328 460 q 356 507 356 488 l 356 681 q 367 710 356 699 q 397 722 379 722 l 539 722 q 569 710 557 722 q 582 681 582 699 l 582 450 q 568 403 582 422 q 543 376 554 385 q 543 363 533 371 q 568 336 554 354 q 582 288 582 318 l 582 43 q 569 13 582 25 q 539 0 557 0 l 415 1 l 397 1 q 367 13 379 1 q 356 43 356 25 l 356 232 q 342 265 356 251 q 308 278 328 278 l 275 278 q 263 265 263 278 l 263 43 q 250 14 263 26 q 219 1 238 1 l 69 1 q 40 14 53 1 q 28 43 28 26 l 28 931 q 40 960 28 947 q 71 972 53 972 m 88 929 q 69 913 69 929 l 69 61 q 88 43 69 43 l 203 43 q 221 61 221 43 l 221 260 l 221 278 l 221 303 q 238 319 221 319 l 308 319 q 371 294 344 319 q 397 232 397 268 l 397 61 q 415 43 397 43 l 521 43 q 539 61 539 43 l 539 288 q 526 323 539 307 q 500 350 514 339 q 482 369 482 365 q 500 388 482 372 q 526 415 514 399 q 539 450 539 431 l 539 663 q 521 681 539 681 l 415 681 q 397 663 397 681 l 397 601 l 397 507 q 371 444 397 469 q 308 418 344 418 l 239 418 q 221 436 221 418 l 219 913 q 201 929 219 929 l 88 929 z "},"l":{"ha":290,"x_min":28,"x_max":263,"o":"m 71 972 l 219 972 q 250 960 238 972 q 263 931 263 947 l 263 43 q 250 14 263 26 q 219 1 238 1 l 69 1 q 40 14 53 1 q 28 43 28 26 l 28 931 q 40 960 28 947 q 71 972 53 972 m 88 929 q 69 913 69 929 l 69 61 q 88 43 69 43 l 203 43 q 221 61 221 43 l 219 913 q 201 929 219 929 l 88 929 z "},"m":{"ha":932,"x_min":28,"x_max":904,"o":"m 71 722 l 536 722 l 781 722 q 868 686 832 722 q 904 599 904 650 l 904 43 q 892 13 904 25 q 861 0 879 0 l 719 0 q 690 13 701 0 q 678 43 678 25 l 678 524 q 664 556 678 543 q 631 569 650 569 q 598 556 611 569 q 585 524 585 543 l 585 43 q 572 13 585 25 q 542 0 560 0 l 397 0 q 367 13 379 0 q 356 43 356 25 l 356 524 q 342 556 356 543 q 308 569 328 569 q 276 556 289 569 q 263 524 263 543 l 263 43 q 250 13 263 25 q 219 0 238 0 l 69 0 q 40 13 53 0 q 28 43 28 25 l 28 681 q 40 710 28 699 q 71 722 53 722 m 781 679 q 640 681 710 681 q 500 681 571 681 q 294 680 396 681 q 88 679 192 679 q 71 663 71 679 l 69 61 q 88 43 69 43 l 203 43 q 221 61 221 43 l 219 524 q 246 586 219 560 q 308 613 272 613 q 372 586 346 613 q 397 524 397 560 l 397 61 q 415 43 397 43 l 525 43 q 543 61 543 43 l 542 524 q 568 586 542 560 q 631 613 594 613 q 694 586 668 613 q 719 524 719 560 q 720 292 719 407 q 719 61 721 178 q 738 43 719 43 l 843 43 q 861 61 861 43 l 861 599 q 838 656 861 632 q 781 679 814 679 z "},"n":{"ha":610,"x_min":28,"x_max":582,"o":"m 71 722 l 457 722 q 546 686 510 722 q 582 599 582 650 l 582 43 q 569 13 582 25 q 539 0 557 0 l 397 0 q 367 13 379 0 q 356 43 356 25 l 356 524 q 342 556 356 543 q 308 569 328 569 q 276 556 289 569 q 263 524 263 543 l 263 43 q 250 13 263 25 q 219 0 238 0 l 69 0 q 40 13 53 0 q 28 43 28 25 l 28 681 q 40 710 28 699 q 71 722 53 722 m 88 679 q 71 663 71 679 l 69 61 q 88 43 69 43 l 203 43 q 221 61 221 43 l 219 524 q 246 586 219 560 q 308 613 272 613 q 372 586 346 613 q 397 524 397 560 l 397 61 q 415 43 397 43 l 521 43 q 539 61 539 43 l 539 599 q 515 656 539 632 q 457 679 492 679 l 88 679 z "},"o":{"ha":574,"x_min":28,"x_max":546,"o":"m 151 722 l 421 722 q 510 686 474 722 q 546 599 546 650 l 546 125 q 510 36 546 72 q 421 0 474 0 l 151 0 q 64 36 100 0 q 28 125 28 72 l 28 599 q 64 686 28 650 q 151 722 100 722 m 151 679 q 94 656 118 679 q 71 599 71 632 l 71 125 q 94 67 71 90 q 151 43 118 43 l 421 43 q 479 67 456 43 q 503 125 503 90 l 503 599 q 479 656 503 632 q 421 679 456 679 l 151 679 m 286 613 q 345 586 324 613 q 367 524 367 560 l 367 193 q 345 131 367 157 q 286 104 324 104 q 228 131 250 104 q 207 193 207 157 l 207 524 q 228 586 207 560 q 286 613 250 613 m 286 569 q 258 556 267 569 q 249 524 249 543 l 249 193 q 258 160 249 174 q 286 146 267 146 q 315 160 306 146 q 324 193 324 174 l 324 524 q 315 556 324 543 q 286 569 306 569 z "},"p":{"ha":610,"x_min":28,"x_max":582,"o":"m 219 -249 l 69 -249 q 40 -237 53 -249 q 28 -207 28 -225 l 28 681 q 40 710 28 699 q 69 722 53 722 l 457 722 q 546 686 510 722 q 582 599 582 650 l 582 125 q 546 38 582 74 q 457 1 510 1 l 279 1 q 263 -17 263 1 l 263 -207 q 250 -237 263 -225 q 219 -249 238 -249 m 203 -206 q 219 -189 219 -206 l 221 1 q 233 31 221 19 q 263 43 244 43 l 457 43 q 515 67 492 43 q 539 125 539 92 l 539 599 q 515 656 539 632 q 457 681 492 681 l 88 681 q 69 663 69 681 l 71 -189 q 88 -206 71 -206 l 203 -206 m 308 111 q 246 138 272 111 q 219 200 219 164 l 219 531 q 246 593 219 567 q 308 619 272 619 q 372 593 346 619 q 397 531 397 567 l 397 200 q 372 138 397 164 q 308 111 346 111 m 308 153 q 342 167 328 153 q 356 200 356 181 l 356 531 q 342 563 356 550 q 308 576 328 576 q 276 563 289 576 q 263 531 263 550 l 263 200 q 276 167 263 181 q 308 153 289 153 z "},"q":{"ha":610,"x_min":28,"x_max":582,"o":"m 390 -249 q 360 -237 372 -249 q 347 -207 347 -225 l 347 -17 q 331 1 347 1 l 151 1 q 64 38 100 1 q 28 125 28 74 l 28 599 q 64 686 28 650 q 151 722 100 722 l 539 722 q 569 710 557 722 q 582 681 582 699 l 582 -207 q 569 -237 582 -225 q 539 -249 557 -249 l 390 -249 m 407 -206 l 521 -206 q 539 -189 539 -206 l 540 663 q 522 681 540 681 l 151 681 q 94 656 118 681 q 71 599 71 632 l 71 125 q 94 67 71 92 q 151 43 118 43 l 347 43 q 376 31 364 43 q 389 1 389 19 l 390 -189 q 407 -206 390 -206 m 301 111 q 238 138 264 111 q 213 200 213 164 l 213 531 q 238 593 213 567 q 301 619 264 619 q 364 593 338 619 q 390 531 390 567 l 390 200 q 364 138 390 164 q 301 111 338 111 m 301 153 q 334 167 321 153 q 347 200 347 181 l 347 531 q 334 563 347 550 q 301 576 321 576 q 268 563 282 576 q 254 531 254 550 l 254 200 q 268 167 254 181 q 301 153 282 153 z "},"r":{"ha":490,"x_min":28,"x_max":463,"o":"m 421 722 q 451 710 439 722 q 463 681 463 697 l 463 561 q 450 531 463 543 q 421 519 438 519 l 290 519 q 271 511 279 519 q 263 492 263 503 l 263 43 q 250 13 263 25 q 219 0 238 0 l 69 0 q 40 13 53 0 q 28 43 28 25 l 28 599 q 64 686 28 650 q 153 722 100 722 l 421 722 m 403 681 l 153 679 q 94 656 118 679 q 71 599 71 632 l 71 61 q 89 43 71 43 l 203 43 q 221 61 221 43 l 221 492 q 241 541 221 521 q 290 561 261 561 l 403 561 q 421 579 421 561 l 421 664 q 403 681 421 681 z "},"s":{"ha":582,"x_min":28,"x_max":554,"o":"m 486 722 q 516 710 504 722 q 528 679 528 697 l 528 561 q 516 531 528 543 q 486 518 504 518 l 344 518 l 382 518 l 258 518 q 239 510 247 518 q 231 490 231 501 q 239 471 231 479 q 258 463 247 463 l 429 463 q 518 426 482 463 q 554 339 554 390 l 553 125 q 517 37 553 74 q 429 0 481 0 l 69 0 q 40 13 53 0 q 28 43 28 25 l 28 161 q 40 192 28 179 q 69 204 53 204 l 321 204 q 340 213 332 204 q 349 232 349 221 q 340 251 349 243 q 321 260 332 260 l 153 260 q 64 296 100 260 q 28 383 28 332 l 28 597 q 64 686 28 650 q 153 722 100 722 l 486 722 m 468 681 l 153 679 q 94 656 118 679 q 71 597 71 632 l 71 383 q 94 326 71 350 q 153 303 118 303 l 321 301 q 370 281 350 301 q 390 232 390 261 q 370 183 390 203 q 321 163 350 163 l 89 161 q 71 143 71 161 l 71 61 q 89 43 71 43 l 429 43 q 487 67 463 43 q 511 125 511 92 l 511 339 q 488 397 511 372 q 429 421 464 421 l 258 421 q 208 441 229 421 q 188 490 188 461 q 208 540 188 519 q 258 560 229 560 l 468 560 q 486 578 486 560 l 486 663 q 468 681 486 681 z "},"t":{"ha":444,"x_min":28,"x_max":417,"o":"m 219 901 q 250 889 238 901 q 263 860 263 876 l 263 739 q 279 722 263 722 l 349 722 q 378 710 367 722 q 390 679 390 697 l 390 561 q 378 531 390 543 q 349 518 367 519 l 276 518 q 263 504 263 518 l 263 225 q 271 206 263 214 q 290 197 279 197 l 374 197 q 403 185 392 197 q 415 156 415 174 l 417 43 q 404 13 417 25 q 374 0 392 0 l 153 1 q 64 38 100 1 q 28 125 28 74 l 28 858 q 40 889 28 876 q 69 901 53 901 l 219 901 m 89 860 q 71 842 71 860 l 71 125 q 94 67 71 92 q 153 43 118 43 l 356 42 q 374 60 374 42 l 374 138 q 356 156 374 156 l 290 156 q 241 176 261 156 q 221 225 221 196 l 221 528 q 230 551 221 542 q 253 560 239 560 l 331 560 q 349 578 349 560 l 349 663 q 331 681 349 681 l 253 681 q 230 690 239 681 q 221 711 221 699 l 221 842 q 203 860 221 860 l 89 860 z "},"u":{"ha":601,"x_min":28,"x_max":574,"o":"m 69 722 l 213 722 q 242 710 231 722 q 254 681 254 697 l 254 200 q 268 167 254 181 q 301 153 282 153 q 334 167 321 153 q 347 200 347 181 l 347 681 q 360 710 347 697 q 389 722 372 722 l 532 722 q 562 710 550 722 q 574 681 574 699 l 574 125 q 538 36 574 72 q 450 0 501 0 l 151 0 q 64 36 100 0 q 28 125 28 72 l 28 681 q 40 710 28 699 q 69 722 53 722 m 194 681 l 89 681 q 71 663 71 681 l 71 125 q 94 67 71 90 q 151 43 118 43 l 450 43 q 508 67 483 43 q 532 125 532 90 l 532 663 q 514 681 532 681 l 407 681 q 389 663 389 681 l 390 200 q 364 137 390 163 q 301 111 338 111 q 238 137 264 111 q 213 200 213 163 q 212 431 213 317 q 213 663 211 546 q 194 681 213 681 z "},"v":{"ha":661,"x_min":25,"x_max":636,"o":"m 58 722 l 211 722 q 233 716 226 722 q 243 696 240 710 l 324 344 q 331 339 324 339 q 339 344 338 339 l 418 694 q 426 712 421 701 q 450 722 432 722 l 604 722 q 629 715 622 722 q 633 697 636 707 l 489 42 q 476 13 486 26 q 442 0 467 0 l 217 0 q 187 13 197 0 q 174 42 176 26 l 28 697 q 32 715 25 707 q 58 722 39 722 m 88 681 q 78 668 75 681 l 213 56 q 229 42 215 42 l 435 42 q 449 54 446 42 l 585 668 q 575 681 588 681 l 471 681 q 454 667 457 681 l 351 236 q 331 221 347 221 q 318 225 324 221 q 311 236 313 229 l 208 664 q 188 681 204 681 l 88 681 z "},"w":{"ha":932,"x_min":28,"x_max":904,"o":"m 861 0 l 151 0 q 64 36 100 0 q 28 125 28 72 l 28 681 q 40 710 28 699 q 69 722 53 722 l 213 722 q 242 710 231 722 q 254 681 254 697 l 254 200 q 268 167 254 181 q 301 153 282 153 q 334 167 321 153 q 347 200 347 181 l 347 681 q 360 710 347 699 q 390 722 372 722 l 535 722 q 565 710 553 722 q 576 681 576 697 l 576 200 q 590 167 576 181 q 624 153 604 153 q 656 167 643 153 q 669 200 669 181 l 669 681 q 682 710 669 699 q 713 722 694 722 l 863 722 q 892 710 879 722 q 904 681 904 697 l 904 43 q 892 13 904 25 q 861 0 879 0 m 151 43 l 843 43 q 861 61 861 43 l 863 663 q 844 681 863 681 l 729 681 q 711 663 711 681 l 713 200 q 686 137 713 163 q 624 111 660 111 q 560 137 586 111 q 535 200 535 163 q 534 431 535 317 q 535 663 533 546 q 517 681 535 681 l 407 681 q 389 663 389 681 l 390 200 q 364 137 390 163 q 301 111 338 111 q 238 137 264 111 q 213 200 213 163 q 212 431 213 317 q 213 663 211 546 q 194 681 213 681 l 89 681 q 71 663 71 681 l 71 125 q 94 67 71 90 q 151 43 118 43 z "},"x":{"ha":601,"x_min":28,"x_max":574,"o":"m 69 722 l 213 722 q 242 710 231 722 q 254 681 254 699 l 254 507 q 268 474 254 488 q 301 460 282 460 q 334 474 321 460 q 347 507 347 488 l 347 681 q 360 710 347 699 q 389 722 372 722 l 532 722 q 562 710 550 722 q 574 681 574 699 l 574 450 q 560 403 574 421 q 535 376 546 385 q 535 363 525 369 q 560 336 546 354 q 574 288 574 318 l 574 43 q 562 13 574 25 q 532 0 550 0 l 389 0 q 360 13 372 0 q 347 43 347 25 l 347 231 q 334 264 347 250 q 301 278 321 278 q 268 264 282 278 q 254 231 254 250 l 254 43 q 242 13 254 25 q 213 0 231 0 l 69 0 q 40 13 53 0 q 28 43 28 25 l 28 288 q 41 336 28 318 q 65 361 54 354 q 65 376 74 369 q 41 403 54 385 q 28 450 28 422 l 28 681 q 40 710 28 699 q 69 722 53 722 m 194 681 l 89 681 q 71 663 71 681 l 71 450 q 83 414 71 431 q 111 386 96 397 q 129 369 129 372 q 111 351 129 365 q 83 324 96 340 q 71 288 71 307 l 71 61 q 89 43 71 43 l 194 43 q 213 61 213 43 l 213 231 q 238 294 213 268 q 301 319 264 319 q 364 294 338 319 q 390 231 390 268 q 390 173 390 190 q 390 151 390 156 q 390 147 390 146 q 390 143 390 149 q 390 120 390 138 q 390 61 390 103 q 408 43 390 43 l 514 43 q 532 61 532 43 l 532 288 q 519 323 532 307 q 493 350 507 339 q 475 369 475 365 q 493 388 475 372 q 519 415 507 399 q 532 450 532 431 l 532 663 q 514 681 532 681 l 407 681 q 389 663 389 681 l 390 507 q 364 444 390 471 q 301 418 338 418 q 238 444 264 418 q 213 507 213 469 q 213 533 213 525 q 213 551 213 540 q 213 587 213 563 q 213 663 213 611 q 194 681 213 681 z "},"y":{"ha":610,"x_min":28,"x_max":582,"o":"m 69 722 l 213 722 q 242 710 231 722 q 254 681 254 699 l 254 265 q 268 232 254 246 q 301 218 282 218 q 334 232 321 218 q 347 265 347 246 l 347 681 q 360 710 347 699 q 390 722 372 722 l 540 722 q 569 710 557 722 q 582 681 582 697 l 582 -125 q 570 -173 582 -150 q 539 -212 558 -196 q 494 -239 519 -229 q 444 -249 469 -249 l 153 -249 q 64 -212 100 -249 q 28 -125 28 -176 l 28 -24 q 40 7 28 -6 q 71 19 53 19 l 231 19 q 260 7 249 19 q 272 -24 272 -6 l 272 -57 q 281 -90 272 -76 q 310 -103 290 -103 q 338 -90 329 -103 q 347 -57 347 -76 l 347 49 q 331 67 347 67 l 151 67 q 64 103 100 67 q 28 190 28 139 l 28 681 q 40 710 28 699 q 69 722 53 722 m 194 681 l 89 681 q 71 663 71 681 l 71 190 q 94 133 71 157 q 151 108 118 108 l 347 108 q 376 96 364 108 q 389 67 389 83 l 390 -57 q 368 -119 390 -93 q 310 -146 346 -146 q 252 -119 274 -146 q 231 -57 231 -93 l 231 -42 q 213 -24 231 -24 l 88 -24 q 71 -42 71 -24 l 71 -125 q 94 -182 71 -158 q 153 -206 118 -206 l 444 -206 q 508 -182 478 -206 q 539 -125 539 -158 q 539 269 539 74 q 540 663 539 464 q 522 681 540 681 l 407 681 q 389 663 389 681 l 390 265 q 364 202 390 228 q 301 176 338 176 q 238 202 264 176 q 213 265 213 228 l 213 663 q 194 681 213 681 z "},"z":{"ha":575,"x_min":25,"x_max":550,"o":"m 354 168 l 499 168 q 528 157 518 168 q 538 128 538 146 l 538 40 q 527 13 538 25 q 499 1 517 1 l 49 1 q 31 10 38 1 q 29 31 25 19 l 228 517 q 214 538 235 538 l 93 538 q 65 548 76 538 q 53 576 53 558 l 53 682 q 64 710 53 699 q 93 722 75 722 l 526 722 q 544 713 538 722 q 546 693 550 704 l 342 188 q 354 168 333 168 m 115 681 q 101 674 107 681 q 96 660 96 668 l 96 599 q 115 579 96 579 l 267 579 q 284 570 278 579 q 286 550 290 561 l 88 61 q 89 49 85 54 q 100 43 93 43 l 476 43 q 490 49 483 43 q 496 63 496 54 l 496 106 q 490 119 496 114 q 476 125 483 125 l 301 125 q 284 134 290 125 q 282 154 278 143 l 488 661 q 486 674 490 668 q 475 681 482 681 l 115 681 z "}," ":{"ha":208,"x_min":0,"x_max":0,"o":""},"O":{"ha":574,"x_min":28,"x_max":546,"o":"m 151 722 l 421 722 q 510 686 474 722 q 546 599 546 650 l 546 125 q 510 36 546 72 q 421 0 474 0 l 151 0 q 64 36 100 0 q 28 125 28 72 l 28 599 q 64 686 28 650 q 151 722 100 722 m 151 679 q 94 656 118 679 q 71 599 71 632 l 71 125 q 94 67 71 90 q 151 43 118 43 l 421 43 q 479 67 456 43 q 503 125 503 90 l 503 599 q 479 656 503 632 q 421 679 456 679 l 151 679 m 286 613 q 345 586 324 613 q 367 524 367 560 l 367 193 q 345 131 367 157 q 286 104 324 104 q 228 131 250 104 q 207 193 207 157 l 207 524 q 228 586 207 560 q 286 613 250 613 m 286 569 q 258 556 267 569 q 249 524 249 543 l 249 193 q 258 160 249 174 q 286 146 267 146 q 315 160 306 146 q 324 193 324 174 l 324 524 q 315 556 324 543 q 286 569 306 569 z "},"C":{"ha":574,"x_min":28,"x_max":546,"o":"m 151 722 l 421 722 q 510 686 474 722 q 546 599 546 650 l 546 443 q 533 413 546 425 q 503 401 521 401 l 367 401 q 336 413 349 401 q 324 443 324 425 l 324 524 q 315 556 324 543 q 286 569 306 569 q 258 556 267 569 q 249 524 249 543 l 249 193 q 258 160 249 174 q 286 146 267 146 q 315 160 306 146 q 324 193 324 174 l 324 274 q 336 303 324 290 q 367 315 349 315 l 503 315 q 533 303 521 315 q 546 274 546 290 l 546 125 q 510 36 546 72 q 421 0 474 0 l 151 0 q 64 36 100 0 q 28 125 28 72 l 28 599 q 64 686 28 650 q 151 722 100 722 m 151 679 q 94 656 118 679 q 71 599 71 632 l 71 125 q 94 67 71 90 q 151 43 118 43 l 421 43 q 479 67 456 43 q 503 125 503 90 l 503 256 q 485 272 503 272 l 383 272 q 367 256 367 272 l 367 193 q 345 131 367 157 q 286 104 324 104 q 228 131 250 104 q 207 193 207 157 l 207 524 q 228 586 207 560 q 286 613 250 613 q 345 586 324 613 q 367 524 367 560 l 367 461 q 383 443 367 443 l 485 443 q 503 461 503 443 l 503 599 q 479 656 503 632 q 421 679 456 679 l 151 679 z "},"H":{"ha":610,"x_min":28,"x_max":582,"o":"m 71 972 l 219 972 q 250 960 238 972 q 263 929 263 947 l 263 740 q 279 722 263 722 l 457 722 q 546 686 510 722 q 582 599 582 650 l 582 43 q 569 13 582 25 q 539 0 557 0 l 397 0 q 367 13 379 0 q 356 43 356 25 l 356 524 q 342 556 356 543 q 308 569 328 569 q 276 556 289 569 q 263 524 263 543 l 263 43 q 250 13 263 25 q 219 0 238 0 l 69 0 q 40 13 53 0 q 28 43 28 25 l 28 929 q 40 960 28 947 q 71 972 53 972 m 88 929 q 71 911 71 929 l 69 61 q 88 43 69 43 l 203 43 q 221 61 221 43 l 219 524 q 246 586 219 560 q 308 613 272 613 q 372 586 346 613 q 397 524 397 560 l 397 383 l 397 61 q 415 43 397 43 l 521 43 q 539 61 539 43 l 539 599 q 515 656 539 632 q 457 679 492 679 l 263 681 q 233 692 244 681 q 221 722 221 704 l 219 911 q 203 929 219 929 l 88 929 z "},"I":{"ha":290,"x_min":28,"x_max":263,"o":"m 263 43 q 250 13 263 25 q 219 1 238 1 l 69 1 q 40 14 53 1 q 28 43 28 26 l 28 681 q 40 710 28 697 q 71 722 53 722 l 219 722 q 250 710 238 722 q 263 681 263 697 l 263 43 m 219 663 q 201 679 219 679 l 88 679 q 69 663 69 679 l 69 61 q 88 43 69 43 l 203 43 q 221 61 221 43 l 219 663 m 263 822 q 250 792 263 804 q 219 781 238 781 l 69 781 q 40 792 53 781 q 28 822 28 804 l 28 929 q 40 958 28 946 q 71 971 53 971 l 219 971 q 250 958 238 971 q 263 929 263 946 l 263 822 m 219 911 q 201 928 219 928 l 88 928 q 69 911 69 928 l 69 840 q 88 822 69 822 l 203 822 q 221 840 221 822 l 219 911 z "},"U":{"ha":601,"x_min":28,"x_max":574,"o":"m 69 722 l 213 722 q 242 710 231 722 q 254 681 254 697 l 254 200 q 268 167 254 181 q 301 153 282 153 q 334 167 321 153 q 347 200 347 181 l 347 681 q 360 710 347 697 q 389 722 372 722 l 532 722 q 562 710 550 722 q 574 681 574 699 l 574 125 q 538 36 574 72 q 450 0 501 0 l 151 0 q 64 36 100 0 q 28 125 28 72 l 28 681 q 40 710 28 699 q 69 722 53 722 m 194 681 l 89 681 q 71 663 71 681 l 71 125 q 94 67 71 90 q 151 43 118 43 l 450 43 q 508 67 483 43 q 532 125 532 90 l 532 663 q 514 681 532 681 l 407 681 q 389 663 389 681 l 390 200 q 364 137 390 163 q 301 111 338 111 q 238 137 264 111 q 213 200 213 163 q 212 431 213 317 q 213 663 211 546 q 194 681 213 681 z "},"P":{"ha":610,"x_min":28,"x_max":582,"o":"m 219 -249 l 69 -249 q 40 -237 53 -249 q 28 -207 28 -225 l 28 681 q 40 710 28 699 q 69 722 53 722 l 457 722 q 546 686 510 722 q 582 599 582 650 l 582 125 q 546 38 582 74 q 457 1 510 1 l 279 1 q 263 -17 263 1 l 263 -207 q 250 -237 263 -225 q 219 -249 238 -249 m 203 -206 q 219 -189 219 -206 l 221 1 q 233 31 221 19 q 263 43 244 43 l 457 43 q 515 67 492 43 q 539 125 539 92 l 539 599 q 515 656 539 632 q 457 681 492 681 l 88 681 q 69 663 69 681 l 71 -189 q 88 -206 71 -206 l 203 -206 m 308 111 q 246 138 272 111 q 219 200 219 164 l 219 531 q 246 593 219 567 q 308 619 272 619 q 372 593 346 619 q 397 531 397 567 l 397 200 q 372 138 397 164 q 308 111 346 111 m 308 153 q 342 167 328 153 q 356 200 356 181 l 356 531 q 342 563 356 550 q 308 576 328 576 q 276 563 289 576 q 263 531 263 550 l 263 200 q 276 167 263 181 q 308 153 289 153 z "},"M":{"ha":932,"x_min":28,"x_max":904,"o":"m 71 722 l 536 722 l 781 722 q 868 686 832 722 q 904 599 904 650 l 904 43 q 892 13 904 25 q 861 0 879 0 l 719 0 q 690 13 701 0 q 678 43 678 25 l 678 524 q 664 556 678 543 q 631 569 650 569 q 598 556 611 569 q 585 524 585 543 l 585 43 q 572 13 585 25 q 542 0 560 0 l 397 0 q 367 13 379 0 q 356 43 356 25 l 356 524 q 342 556 356 543 q 308 569 328 569 q 276 556 289 569 q 263 524 263 543 l 263 43 q 250 13 263 25 q 219 0 238 0 l 69 0 q 40 13 53 0 q 28 43 28 25 l 28 681 q 40 710 28 699 q 71 722 53 722 m 781 679 q 640 681 710 681 q 500 681 571 681 q 294 680 396 681 q 88 679 192 679 q 71 663 71 679 l 69 61 q 88 43 69 43 l 203 43 q 221 61 221 43 l 219 524 q 246 586 219 560 q 308 613 272 613 q 372 586 346 613 q 397 524 397 560 l 397 61 q 415 43 397 43 l 525 43 q 543 61 543 43 l 542 524 q 568 586 542 560 q 631 613 594 613 q 694 586 668 613 q 719 524 719 560 q 720 292 719 407 q 719 61 721 178 q 738 43 719 43 l 843 43 q 861 61 861 43 l 861 599 q 838 656 861 632 q 781 679 814 679 z "},"R":{"ha":490,"x_min":28,"x_max":463,"o":"m 421 722 q 451 710 439 722 q 463 681 463 697 l 463 561 q 450 531 463 543 q 421 519 438 519 l 290 519 q 271 511 279 519 q 263 492 263 503 l 263 43 q 250 13 263 25 q 219 0 238 0 l 69 0 q 40 13 53 0 q 28 43 28 25 l 28 599 q 64 686 28 650 q 153 722 100 722 l 421 722 m 403 681 l 153 679 q 94 656 118 679 q 71 599 71 632 l 71 61 q 89 43 71 43 l 203 43 q 221 61 221 43 l 221 492 q 241 541 221 521 q 290 561 261 561 l 403 561 q 421 579 421 561 l 421 664 q 403 681 421 681 z "},"A":{"ha":574,"x_min":28,"x_max":546,"o":"m 153 722 l 421 722 q 510 686 474 722 q 546 599 546 650 l 546 125 q 510 37 546 74 q 421 0 474 0 l 153 0 q 64 37 100 0 q 28 125 28 74 l 28 313 q 66 405 28 367 q 160 443 104 443 l 308 443 q 320 448 315 443 q 325 460 325 453 l 325 531 q 315 563 325 550 q 286 576 306 576 q 258 565 267 576 q 249 533 249 553 l 249 526 q 237 497 249 510 q 207 485 225 485 l 69 485 q 40 497 53 485 q 28 526 28 510 l 28 599 q 64 686 28 650 q 153 722 100 722 m 153 679 q 94 656 118 679 q 71 599 71 632 l 71 544 q 88 528 71 528 l 190 528 q 207 544 207 528 l 207 549 q 228 596 207 572 q 286 619 250 619 q 345 593 324 619 q 367 531 367 567 l 367 439 q 356 413 367 424 q 329 401 344 401 l 158 401 q 97 375 122 401 q 71 313 71 349 l 71 125 q 94 67 71 92 q 153 43 118 43 l 421 43 q 479 67 456 43 q 503 125 503 92 l 503 599 q 479 656 503 632 q 421 679 456 679 l 153 679 m 283 329 l 333 329 q 357 320 347 329 q 367 297 367 311 l 367 200 q 345 137 367 163 q 286 111 324 111 q 228 137 250 111 q 207 200 207 163 l 207 254 q 229 308 207 286 q 283 329 251 329 m 283 288 q 259 278 269 288 q 249 253 249 268 l 249 200 q 258 167 249 181 q 286 153 267 153 q 315 167 306 153 q 325 200 325 181 l 325 274 q 311 288 325 288 l 283 288 z "},"B":{"ha":610,"x_min":28,"x_max":582,"o":"m 219 972 q 250 960 238 972 q 263 929 263 947 l 263 740 q 279 722 263 722 l 457 722 q 546 686 510 722 q 582 599 582 650 l 582 125 q 546 36 582 72 q 457 0 510 0 l 69 1 q 40 13 53 1 q 28 43 28 25 l 28 929 q 40 960 28 947 q 69 972 53 972 l 219 972 m 203 929 l 88 929 q 71 911 71 929 l 69 61 q 88 43 69 43 l 457 43 q 515 67 492 43 q 539 125 539 90 l 539 599 q 515 656 539 632 q 457 679 492 679 l 263 681 q 233 692 244 681 q 221 722 221 704 l 219 911 q 203 929 219 929 m 308 613 q 372 586 346 613 q 397 524 397 560 l 397 193 q 372 131 397 157 q 308 104 346 104 q 246 131 272 104 q 219 193 219 157 l 219 524 q 246 586 219 560 q 308 613 272 613 m 308 569 q 276 556 289 569 q 263 524 263 543 l 263 193 q 276 160 263 174 q 308 146 289 146 q 342 160 328 146 q 356 193 356 174 l 356 524 q 342 556 356 543 q 308 569 328 569 z "},"D":{"ha":610,"x_min":28,"x_max":582,"o":"m 390 972 l 539 972 q 569 960 557 972 q 582 929 582 947 l 582 43 q 569 13 582 25 q 539 1 557 1 l 151 0 q 64 36 100 0 q 28 125 28 72 l 28 599 q 64 686 28 650 q 151 722 100 722 l 331 722 q 347 740 347 722 l 347 929 q 360 960 347 947 q 390 972 372 972 m 407 929 q 390 911 390 929 l 389 722 q 376 692 389 704 q 347 681 364 681 l 151 679 q 94 656 118 679 q 71 599 71 632 l 71 125 q 94 67 71 90 q 151 43 118 43 l 522 43 q 540 61 540 43 l 539 911 q 521 929 539 929 l 407 929 m 301 613 q 364 586 338 613 q 390 524 390 560 l 390 193 q 364 131 390 157 q 301 104 338 104 q 238 131 264 104 q 213 193 213 157 l 213 524 q 238 586 213 560 q 301 613 264 613 m 301 569 q 268 556 282 569 q 254 524 254 543 l 254 193 q 268 160 254 174 q 301 146 282 146 q 334 160 321 146 q 347 193 347 174 l 347 524 q 334 556 347 543 q 301 569 321 569 z "},"E":{"ha":574,"x_min":28,"x_max":546,"o":"m 151 722 l 421 722 q 510 686 474 722 q 546 599 546 650 l 546 350 q 533 320 546 332 q 503 308 521 308 l 265 308 q 253 303 258 308 q 249 292 249 299 l 249 193 q 258 160 249 174 q 286 146 267 146 q 315 160 306 146 q 325 193 325 174 l 324 215 q 336 245 324 233 q 367 257 349 257 l 503 257 q 533 245 521 257 q 546 215 546 233 l 546 125 q 510 37 546 74 q 421 0 474 0 l 151 0 q 64 37 100 0 q 28 125 28 74 l 28 599 q 64 686 28 650 q 151 722 100 722 m 151 679 q 94 656 118 679 q 71 599 71 632 l 71 125 q 94 67 71 92 q 151 43 118 43 l 421 43 q 479 67 456 43 q 503 125 503 92 l 503 197 q 485 214 503 214 l 383 214 q 367 197 367 214 l 367 193 q 345 131 367 157 q 286 104 324 104 q 228 131 250 104 q 207 193 207 157 l 207 313 q 218 339 207 328 q 244 350 229 350 l 485 350 q 503 368 503 350 l 503 599 q 479 656 503 632 q 421 679 456 679 l 151 679 m 286 613 q 345 586 324 613 q 367 524 367 560 l 367 461 q 355 434 367 446 q 326 422 343 422 q 285 422 306 422 q 242 421 264 421 q 217 431 226 421 q 207 457 207 442 l 207 524 q 228 586 207 560 q 286 613 250 613 m 286 569 q 258 556 267 569 q 249 524 249 543 l 249 479 q 265 464 249 464 l 308 464 q 324 479 324 464 l 325 524 q 315 556 325 543 q 286 569 306 569 z "},"F":{"ha":481,"x_min":28,"x_max":453,"o":"m 411 971 q 441 959 429 971 q 453 929 453 947 l 453 810 q 441 781 453 793 q 411 768 429 768 l 290 768 q 271 760 279 768 q 263 740 263 751 q 271 721 263 729 q 290 713 279 713 l 382 713 l 401 713 q 432 700 421 713 q 443 671 443 688 l 443 550 q 431 521 443 533 q 401 508 418 508 l 290 508 q 271 500 279 508 q 263 481 263 492 l 263 42 q 250 13 263 25 q 219 0 238 0 l 69 0 q 40 13 53 0 q 28 43 28 25 l 28 847 q 64 935 28 899 q 153 971 100 971 l 411 971 m 393 931 l 153 929 q 94 905 118 929 q 71 847 71 881 l 71 60 q 89 42 71 42 l 203 42 q 221 60 221 42 l 221 489 q 247 538 221 525 q 301 551 274 550 l 383 551 q 401 568 401 551 l 401 653 q 383 671 401 671 l 332 671 l 290 671 q 241 691 261 671 q 221 740 221 711 q 241 790 221 769 q 290 810 261 810 l 393 810 q 411 828 411 810 l 411 913 q 393 931 411 931 z "},"G":{"ha":610,"x_min":28,"x_max":582,"o":"m 151 722 l 539 722 q 569 710 557 722 q 582 681 582 697 l 582 -125 q 570 -173 582 -150 q 539 -212 558 -196 q 494 -239 519 -229 q 444 -249 469 -249 l 153 -249 q 64 -212 100 -249 q 28 -125 28 -176 l 28 -24 q 40 7 28 -6 q 69 19 53 19 l 231 19 q 260 7 249 19 q 272 -24 272 -6 l 272 -57 q 281 -90 272 -76 q 310 -103 290 -103 q 338 -90 329 -103 q 347 -57 347 -76 l 347 49 q 331 67 347 67 l 151 65 q 64 101 100 65 q 28 190 28 138 l 28 599 q 64 686 28 650 q 151 722 100 722 m 522 681 l 151 679 q 94 656 118 679 q 71 599 71 632 l 71 190 q 94 132 71 156 q 151 108 118 108 l 347 108 q 376 96 364 108 q 389 67 389 83 l 390 -57 q 368 -119 390 -93 q 310 -146 346 -146 q 252 -119 274 -146 q 231 -57 231 -93 l 231 -42 q 213 -24 231 -24 l 88 -24 q 71 -42 71 -24 l 71 -125 q 94 -183 71 -158 q 153 -207 118 -207 l 444 -207 q 508 -183 478 -207 q 539 -125 539 -158 l 539 663 q 522 681 539 681 m 301 176 q 239 202 265 176 q 213 265 213 228 l 213 531 q 239 593 213 567 q 301 619 265 619 q 364 593 338 619 q 390 531 390 567 l 390 265 q 364 202 390 228 q 301 176 338 176 m 301 218 q 334 232 321 218 q 347 265 347 246 l 347 531 q 334 563 347 550 q 301 576 321 576 q 268 563 282 576 q 254 531 254 550 l 254 265 q 268 232 254 246 q 301 218 282 218 z "},"J":{"ha":415,"x_min":28,"x_max":388,"o":"m 69 -249 q 40 -237 53 -249 q 28 -207 28 -225 l 28 -87 q 40 -58 28 -71 q 71 -46 53 -46 l 125 -46 q 146 -37 138 -46 q 154 -18 154 -29 l 154 681 q 166 710 154 697 q 196 722 178 722 l 346 722 q 376 710 364 722 q 388 681 388 697 l 388 -125 q 351 -212 388 -176 q 264 -249 315 -249 l 69 -249 m 88 -207 l 264 -206 q 322 -182 297 -206 q 346 -125 346 -158 l 346 663 q 328 681 346 681 l 213 681 q 194 663 194 681 l 196 -18 q 175 -67 196 -47 q 125 -87 154 -87 l 88 -87 q 69 -106 69 -87 l 69 -190 q 88 -207 69 -207 m 388 822 q 375 792 388 804 q 346 781 363 781 l 196 781 q 165 792 178 781 q 153 822 153 804 l 153 929 q 165 958 153 946 q 196 971 178 971 l 346 971 q 375 958 363 971 q 388 929 388 946 l 388 822 m 344 911 q 328 928 344 928 l 213 928 q 196 911 196 928 l 194 840 q 213 822 194 822 l 328 822 q 346 840 346 822 l 344 911 z "},"K":{"ha":610,"x_min":28,"x_max":582,"o":"m 71 972 l 219 972 q 250 960 238 972 q 263 931 263 947 l 263 474 q 275 460 263 460 l 308 460 q 342 474 328 460 q 356 507 356 488 l 356 681 q 367 710 356 699 q 397 722 379 722 l 539 722 q 569 710 557 722 q 582 681 582 699 l 582 450 q 568 403 582 422 q 543 376 554 385 q 543 363 533 371 q 568 336 554 354 q 582 288 582 318 l 582 43 q 569 13 582 25 q 539 0 557 0 l 415 1 l 397 1 q 367 13 379 1 q 356 43 356 25 l 356 232 q 342 265 356 251 q 308 278 328 278 l 275 278 q 263 265 263 278 l 263 43 q 250 14 263 26 q 219 1 238 1 l 69 1 q 40 14 53 1 q 28 43 28 26 l 28 931 q 40 960 28 947 q 71 972 53 972 m 88 929 q 69 913 69 929 l 69 61 q 88 43 69 43 l 203 43 q 221 61 221 43 l 221 260 l 221 278 l 221 303 q 238 319 221 319 l 308 319 q 371 294 344 319 q 397 232 397 268 l 397 61 q 415 43 397 43 l 521 43 q 539 61 539 43 l 539 288 q 526 323 539 307 q 500 350 514 339 q 482 369 482 365 q 500 388 482 372 q 526 415 514 399 q 539 450 539 431 l 539 663 q 521 681 539 681 l 415 681 q 397 663 397 681 l 397 601 l 397 507 q 371 444 397 469 q 308 418 344 418 l 239 418 q 221 436 221 418 l 219 913 q 201 929 219 929 l 88 929 z "},"L":{"ha":290,"x_min":28,"x_max":263,"o":"m 71 972 l 219 972 q 250 960 238 972 q 263 931 263 947 l 263 43 q 250 14 263 26 q 219 1 238 1 l 69 1 q 40 14 53 1 q 28 43 28 26 l 28 931 q 40 960 28 947 q 71 972 53 972 m 88 929 q 69 913 69 929 l 69 61 q 88 43 69 43 l 203 43 q 221 61 221 43 l 219 913 q 201 929 219 929 l 88 929 z "},"N":{"ha":610,"x_min":28,"x_max":582,"o":"m 71 722 l 457 722 q 546 686 510 722 q 582 599 582 650 l 582 43 q 569 13 582 25 q 539 0 557 0 l 397 0 q 367 13 379 0 q 356 43 356 25 l 356 524 q 342 556 356 543 q 308 569 328 569 q 276 556 289 569 q 263 524 263 543 l 263 43 q 250 13 263 25 q 219 0 238 0 l 69 0 q 40 13 53 0 q 28 43 28 25 l 28 681 q 40 710 28 699 q 71 722 53 722 m 88 679 q 71 663 71 679 l 69 61 q 88 43 69 43 l 203 43 q 221 61 221 43 l 219 524 q 246 586 219 560 q 308 613 272 613 q 372 586 346 613 q 397 524 397 560 l 397 61 q 415 43 397 43 l 521 43 q 539 61 539 43 l 539 599 q 515 656 539 632 q 457 679 492 679 l 88 679 z "},"Q":{"ha":610,"x_min":28,"x_max":582,"o":"m 390 -249 q 360 -237 372 -249 q 347 -207 347 -225 l 347 -17 q 331 1 347 1 l 151 1 q 64 38 100 1 q 28 125 28 74 l 28 599 q 64 686 28 650 q 151 722 100 722 l 539 722 q 569 710 557 722 q 582 681 582 699 l 582 -207 q 569 -237 582 -225 q 539 -249 557 -249 l 390 -249 m 407 -206 l 521 -206 q 539 -189 539 -206 l 540 663 q 522 681 540 681 l 151 681 q 94 656 118 681 q 71 599 71 632 l 71 125 q 94 67 71 92 q 151 43 118 43 l 347 43 q 376 31 364 43 q 389 1 389 19 l 390 -189 q 407 -206 390 -206 m 301 111 q 238 138 264 111 q 213 200 213 164 l 213 531 q 238 593 213 567 q 301 619 264 619 q 364 593 338 619 q 390 531 390 567 l 390 200 q 364 138 390 164 q 301 111 338 111 m 301 153 q 334 167 321 153 q 347 200 347 181 l 347 531 q 334 563 347 550 q 301 576 321 576 q 268 563 282 576 q 254 531 254 550 l 254 200 q 268 167 254 181 q 301 153 282 153 z "},"S":{"ha":582,"x_min":28,"x_max":554,"o":"m 486 722 q 516 710 504 722 q 528 679 528 697 l 528 561 q 516 531 528 543 q 486 518 504 518 l 344 518 l 382 518 l 258 518 q 239 510 247 518 q 231 490 231 501 q 239 471 231 479 q 258 463 247 463 l 429 463 q 518 426 482 463 q 554 339 554 390 l 553 125 q 517 37 553 74 q 429 0 481 0 l 69 0 q 40 13 53 0 q 28 43 28 25 l 28 161 q 40 192 28 179 q 69 204 53 204 l 321 204 q 340 213 332 204 q 349 232 349 221 q 340 251 349 243 q 321 260 332 260 l 153 260 q 64 296 100 260 q 28 383 28 332 l 28 597 q 64 686 28 650 q 153 722 100 722 l 486 722 m 468 681 l 153 679 q 94 656 118 679 q 71 597 71 632 l 71 383 q 94 326 71 350 q 153 303 118 303 l 321 301 q 370 281 350 301 q 390 232 390 261 q 370 183 390 203 q 321 163 350 163 l 89 161 q 71 143 71 161 l 71 61 q 89 43 71 43 l 429 43 q 487 67 463 43 q 511 125 511 92 l 511 339 q 488 397 511 372 q 429 421 464 421 l 258 421 q 208 441 229 421 q 188 490 188 461 q 208 540 188 519 q 258 560 229 560 l 468 560 q 486 578 486 560 l 486 663 q 468 681 486 681 z "},"T":{"ha":444,"x_min":28,"x_max":417,"o":"m 219 901 q 250 889 238 901 q 263 860 263 876 l 263 739 q 279 722 263 722 l 349 722 q 378 710 367 722 q 390 679 390 697 l 390 561 q 378 531 390 543 q 349 518 367 519 l 276 518 q 263 504 263 518 l 263 225 q 271 206 263 214 q 290 197 279 197 l 374 197 q 403 185 392 197 q 415 156 415 174 l 417 43 q 404 13 417 25 q 374 0 392 0 l 153 1 q 64 38 100 1 q 28 125 28 74 l 28 858 q 40 889 28 876 q 69 901 53 901 l 219 901 m 89 860 q 71 842 71 860 l 71 125 q 94 67 71 92 q 153 43 118 43 l 356 42 q 374 60 374 42 l 374 138 q 356 156 374 156 l 290 156 q 241 176 261 156 q 221 225 221 196 l 221 528 q 230 551 221 542 q 253 560 239 560 l 331 560 q 349 578 349 560 l 349 663 q 331 681 349 681 l 253 681 q 230 690 239 681 q 221 711 221 699 l 221 842 q 203 860 221 860 l 89 860 z "},"V":{"ha":661,"x_min":25,"x_max":636,"o":"m 58 722 l 211 722 q 233 716 226 722 q 243 696 240 710 l 324 344 q 331 339 324 339 q 339 344 338 339 l 418 694 q 426 712 421 701 q 450 722 432 722 l 604 722 q 629 715 622 722 q 633 697 636 707 l 489 42 q 476 13 486 26 q 442 0 467 0 l 217 0 q 187 13 197 0 q 174 42 176 26 l 28 697 q 32 715 25 707 q 58 722 39 722 m 88 681 q 78 668 75 681 l 213 56 q 229 42 215 42 l 435 42 q 449 54 446 42 l 585 668 q 575 681 588 681 l 471 681 q 454 667 457 681 l 351 236 q 331 221 347 221 q 318 225 324 221 q 311 236 313 229 l 208 664 q 188 681 204 681 l 88 681 z "},"W":{"ha":932,"x_min":28,"x_max":904,"o":"m 861 0 l 151 0 q 64 36 100 0 q 28 125 28 72 l 28 681 q 40 710 28 699 q 69 722 53 722 l 213 722 q 242 710 231 722 q 254 681 254 697 l 254 200 q 268 167 254 181 q 301 153 282 153 q 334 167 321 153 q 347 200 347 181 l 347 681 q 360 710 347 699 q 390 722 372 722 l 535 722 q 565 710 553 722 q 576 681 576 697 l 576 200 q 590 167 576 181 q 624 153 604 153 q 656 167 643 153 q 669 200 669 181 l 669 681 q 682 710 669 699 q 713 722 694 722 l 863 722 q 892 710 879 722 q 904 681 904 697 l 904 43 q 892 13 904 25 q 861 0 879 0 m 151 43 l 843 43 q 861 61 861 43 l 863 663 q 844 681 863 681 l 729 681 q 711 663 711 681 l 713 200 q 686 137 713 163 q 624 111 660 111 q 560 137 586 111 q 535 200 535 163 q 534 431 535 317 q 535 663 533 546 q 517 681 535 681 l 407 681 q 389 663 389 681 l 390 200 q 364 137 390 163 q 301 111 338 111 q 238 137 264 111 q 213 200 213 163 q 212 431 213 317 q 213 663 211 546 q 194 681 213 681 l 89 681 q 71 663 71 681 l 71 125 q 94 67 71 90 q 151 43 118 43 z "},"X":{"ha":601,"x_min":28,"x_max":574,"o":"m 69 722 l 213 722 q 242 710 231 722 q 254 681 254 699 l 254 507 q 268 474 254 488 q 301 460 282 460 q 334 474 321 460 q 347 507 347 488 l 347 681 q 360 710 347 699 q 389 722 372 722 l 532 722 q 562 710 550 722 q 574 681 574 699 l 574 450 q 560 403 574 421 q 535 376 546 385 q 535 363 525 369 q 560 336 546 354 q 574 288 574 318 l 574 43 q 562 13 574 25 q 532 0 550 0 l 389 0 q 360 13 372 0 q 347 43 347 25 l 347 231 q 334 264 347 250 q 301 278 321 278 q 268 264 282 278 q 254 231 254 250 l 254 43 q 242 13 254 25 q 213 0 231 0 l 69 0 q 40 13 53 0 q 28 43 28 25 l 28 288 q 41 336 28 318 q 65 361 54 354 q 65 376 74 369 q 41 403 54 385 q 28 450 28 422 l 28 681 q 40 710 28 699 q 69 722 53 722 m 194 681 l 89 681 q 71 663 71 681 l 71 450 q 83 414 71 431 q 111 386 96 397 q 129 369 129 372 q 111 351 129 365 q 83 324 96 340 q 71 288 71 307 l 71 61 q 89 43 71 43 l 194 43 q 213 61 213 43 l 213 231 q 238 294 213 268 q 301 319 264 319 q 364 294 338 319 q 390 231 390 268 q 390 173 390 190 q 390 151 390 156 q 390 147 390 146 q 390 143 390 149 q 390 120 390 138 q 390 61 390 103 q 408 43 390 43 l 514 43 q 532 61 532 43 l 532 288 q 519 323 532 307 q 493 350 507 339 q 475 369 475 365 q 493 388 475 372 q 519 415 507 399 q 532 450 532 431 l 532 663 q 514 681 532 681 l 407 681 q 389 663 389 681 l 390 507 q 364 444 390 471 q 301 418 338 418 q 238 444 264 418 q 213 507 213 469 q 213 533 213 525 q 213 551 213 540 q 213 587 213 563 q 213 663 213 611 q 194 681 213 681 z "},"Y":{"ha":610,"x_min":28,"x_max":582,"o":"m 69 722 l 213 722 q 242 710 231 722 q 254 681 254 699 l 254 265 q 268 232 254 246 q 301 218 282 218 q 334 232 321 218 q 347 265 347 246 l 347 681 q 360 710 347 699 q 390 722 372 722 l 540 722 q 569 710 557 722 q 582 681 582 697 l 582 -125 q 570 -173 582 -150 q 539 -212 558 -196 q 494 -239 519 -229 q 444 -249 469 -249 l 153 -249 q 64 -212 100 -249 q 28 -125 28 -176 l 28 -24 q 40 7 28 -6 q 71 19 53 19 l 231 19 q 260 7 249 19 q 272 -24 272 -6 l 272 -57 q 281 -90 272 -76 q 310 -103 290 -103 q 338 -90 329 -103 q 347 -57 347 -76 l 347 49 q 331 67 347 67 l 151 67 q 64 103 100 67 q 28 190 28 139 l 28 681 q 40 710 28 699 q 69 722 53 722 m 194 681 l 89 681 q 71 663 71 681 l 71 190 q 94 133 71 157 q 151 108 118 108 l 347 108 q 376 96 364 108 q 389 67 389 83 l 390 -57 q 368 -119 390 -93 q 310 -146 346 -146 q 252 -119 274 -146 q 231 -57 231 -93 l 231 -42 q 213 -24 231 -24 l 88 -24 q 71 -42 71 -24 l 71 -125 q 94 -182 71 -158 q 153 -206 118 -206 l 444 -206 q 508 -182 478 -206 q 539 -125 539 -158 q 539 269 539 74 q 540 663 539 464 q 522 681 540 681 l 407 681 q 389 663 389 681 l 390 265 q 364 202 390 228 q 301 176 338 176 q 238 202 264 176 q 213 265 213 228 l 213 663 q 194 681 213 681 z "},"Z":{"ha":575,"x_min":25,"x_max":550,"o":"m 354 168 l 499 168 q 528 157 518 168 q 538 128 538 146 l 538 40 q 527 13 538 25 q 499 1 517 1 l 49 1 q 31 10 38 1 q 29 31 25 19 l 228 517 q 214 538 235 538 l 93 538 q 65 548 76 538 q 53 576 53 558 l 53 682 q 64 710 53 699 q 93 722 75 722 l 526 722 q 544 713 538 722 q 546 693 550 704 l 342 188 q 354 168 333 168 m 115 681 q 101 674 107 681 q 96 660 96 668 l 96 599 q 115 579 96 579 l 267 579 q 284 570 278 579 q 286 550 290 561 l 88 61 q 89 49 85 54 q 100 43 93 43 l 476 43 q 490 49 483 43 q 496 63 496 54 l 496 106 q 490 119 496 114 q 476 125 483 125 l 301 125 q 284 134 290 125 q 282 154 278 143 l 488 661 q 486 674 490 668 q 475 681 482 681 l 115 681 z "}}}
